<svg xmlns="http://www.w3.org/2000/svg" width="23" height="24" viewBox="0 0 23 24">
  <defs>
    <style>
      .cls-1 {
        fill: #3ae1a4;
        fill-rule: evenodd;
      }
    </style>
  </defs>
  <path id="Фигура_6" data-name="Фигура 6" class="cls-1" d="M966.75,4127.29v5.48H950.125v-5.48h-3.194v7.1a1.6,1.6,0,0,0,1.6,1.61h19.816a1.6,1.6,0,0,0,1.6-1.61v-7.1h-3.2Zm0,0-8.6-.54-4.574-5.58s-0.7-.66.059-0.66h2.577v-8.12s-0.1-.39.488-0.39h3.627a0.352,0.352,0,0,1,.419.33v8.01h2.379c0.915,0,.225.7,0.225,0.7s-3.891,5.21-4.437,5.76a0.506,0.506,0,0,1-.763-0.05h0Zm0,0" transform="translate(-946.938 -4112)"/>
</svg>
