<svg xmlns="http://www.w3.org/2000/svg" width="67" height="59" viewBox="0 0 67 59">
  <defs>
    <style>
      .cls-1 {
        fill: #39dfa2;
        fill-rule: evenodd;
      }
    </style>
  </defs>
  <path id="Фигура_3" data-name="Фигура 3" class="cls-1" d="M1372.98,3156.54a7.885,7.885,0,0,0,7.9-7.84v-30.85a7.887,7.887,0,0,0-7.9-7.85h-44.96a7.887,7.887,0,0,0-7.9,7.85v30.85a7.885,7.885,0,0,0,7.9,7.84h44.96Zm1.09-37.74v28.95a2.042,2.042,0,0,1-2.05,2.03h-43.04a2.042,2.042,0,0,1-2.05-2.03V3118.8a2.042,2.042,0,0,1,2.05-2.03h43.04a2.042,2.042,0,0,1,2.05,2.03h0Zm0,0M1317,3160.61a8.837,8.837,0,0,0,8.84,8.39h49.32a8.837,8.837,0,0,0,8.84-8.39h-67Zm0,0,14.02-14.89h38.96v-24.89h-38.96v24.89Z" transform="translate(-1317 -3110)"/>
</svg>
