<svg xmlns="http://www.w3.org/2000/svg" viewBox="0 0 229.03 35"><defs><style>.a{fill:#fff;}.b{fill:#0f253c;}</style></defs><title>avtosale</title><rect class="a" width="135" height="35"/><path class="b" d="M17.67,8.22h6.27c3.8,0,6.75,1.11,6.75,4.86a4.58,4.58,0,0,1-2.39,4.23v.12A4.38,4.38,0,0,1,31.59,22c0,4-3.15,5.76-7.11,5.76H17.67Zm6.08,7.83c2,0,2.89-.9,2.89-2.31s-.92-2.1-2.86-2.1h-2v4.41Zm.39,8.31c2.25,0,3.4-.84,3.4-2.64s-1.12-2.4-3.4-2.4H21.81v5Z" transform="translate(-0.63 -1.75)"/><path class="b" d="M37.5,8.22h4.13v7.14h1.83c4.13,0,7.17,1.71,7.17,6,0,4.71-3.18,6.39-7.26,6.39H37.5Zm5.62,16c2.17,0,3.46-.81,3.46-2.82,0-1.74-1.15-2.58-3.46-2.58H41.63v5.4Zm9.9-16h4.13V27.78H53Z" transform="translate(-0.63 -1.75)"/><path class="b" d="M64.29,8.22h4.14V15.9h2l2.39-4.5c1.41-2.67,2.76-3.54,4.84-3.54a3.53,3.53,0,0,1,1.52.27l-.68,4a2.3,2.3,0,0,0-.81-.12c-.82,0-1.29.36-2,1.77l-2,3.66,6,10.35H75.32l-4.87-8.31h-2v8.31H64.29Z" transform="translate(-0.63 -1.75)"/><path class="b" d="M84.54,27.75l.73-3.84a3.44,3.44,0,0,0,1.38.24,1.83,1.83,0,0,0,1.77-.9l.25-.57L82.46,8.22h4.39L89,13.92l1.55,4.68h.11l1.44-4.68L94,8.22h4.16L92.53,23.34c-1.13,3-2.81,4.8-5.65,4.8A5.72,5.72,0,0,1,84.54,27.75Z" transform="translate(-0.63 -1.75)"/><path class="b" d="M103,8.22h14.31V27.78H113.2V11.94h-6V27.78H103Z" transform="translate(-0.63 -1.75)"/><path class="a" d="M152.91,7.79h5.62L165,27.34h-4.95l-1.27-4.65h-6.32l-1.26,4.65h-4.77Zm.51,11.45h4.41l-.48-1.8c-.57-2-1.14-4.25-1.68-6.29h-.13c-.5,2.06-1,4.34-1.62,6.29Z" transform="translate(-0.63 -1.75)"/><path class="a" d="M170.43,7.79h7.08c4.28,0,7.61,1.11,7.61,4.86a4.5,4.5,0,0,1-2.69,4.22V17a4.49,4.49,0,0,1,3.71,4.59c0,4-3.56,5.76-8,5.76h-7.68Zm6.85,7.82c2.29,0,3.27-.9,3.27-2.31s-1-2.09-3.23-2.09h-2.23v4.4Zm.45,8.31c2.54,0,3.84-.84,3.84-2.64s-1.27-2.4-3.84-2.4h-2.64v5Z" transform="translate(-0.63 -1.75)"/><path class="a" d="M196,11.5h-5.68V7.79h16V11.5h-5.68V27.34H196Z" transform="translate(-0.63 -1.75)"/><path class="a" d="M210.86,17.47c0-6.39,3.81-10,9.4-10s9.39,3.68,9.39,10-3.81,10.23-9.39,10.23S210.86,23.86,210.86,17.47Zm14,0c0-3.9-1.78-6.24-4.6-6.24s-4.6,2.34-4.6,6.24,1.77,6.42,4.6,6.42S224.86,21.4,224.86,17.47Z" transform="translate(-0.63 -1.75)"/></svg>