<svg xmlns="http://www.w3.org/2000/svg" width="30" height="54" viewBox="0 0 30 54">
  <defs>
    <style>
      .cls-1 {
        fill: #39dfa2;
        fill-rule: evenodd;
      }
    </style>
  </defs>
  <path id="Фигура_2" data-name="Фигура 2" class="cls-1" d="M970.151,3111.99h-22.3a3.9,3.9,0,0,0-3.857,3.93v46.16a3.9,3.9,0,0,0,3.857,3.94h22.3a3.9,3.9,0,0,0,3.856-3.94v-46.16a3.9,3.9,0,0,0-3.856-3.93h0Zm-16.649,2.39h11a0.831,0.831,0,0,1,.509.94,0.851,0.851,0,0,1-.509.96h-11a0.846,0.846,0,0,1-.5-0.96,0.826,0.826,0,0,1,.5-0.94h0Zm5.5,47.75a2.511,2.511,0,1,1,2.45-2.51,2.5,2.5,0,0,1-2.45,2.51h0Zm12.1-8.6H946.892v-34.9h24.219v34.9Zm0,0" transform="translate(-944 -3112)"/>
</svg>
