<svg xmlns="http://www.w3.org/2000/svg" width="20" height="20" viewBox="0 0 20 20">
  <defs>
    <style>
      .cls-1 {
        fill: #fff;
        fill-rule: evenodd;
      }
    </style>
  </defs>
  <path id="Фигура_8" data-name="Фигура 8" class="cls-1" d="M1350.99,49.784a0.976,0.976,0,0,1-.3.847l-2.81,2.8a1.571,1.571,0,0,1-.5.36,2.063,2.063,0,0,1-.6.191c-0.02,0-.06,0-0.13.011s-0.16.011-.28,0.011a9.356,9.356,0,0,1-3.5-.816,18.351,18.351,0,0,1-2.95-1.621,22.459,22.459,0,0,1-3.52-2.966,23.94,23.94,0,0,1-2.45-2.8,20.484,20.484,0,0,1-1.57-2.468,14.1,14.1,0,0,1-.89-2.056,10.491,10.491,0,0,1-.4-1.589,5.722,5.722,0,0,1-.09-1.049q0.03-.381.03-0.424a1.813,1.813,0,0,1,.19-0.6,1.476,1.476,0,0,1,.36-0.5l2.81-2.818a0.948,0.948,0,0,1,.68-0.3,0.8,0.8,0,0,1,.49.159,1.51,1.51,0,0,1,.36.392l2.26,4.3a1.051,1.051,0,0,1,.11.742,1.375,1.375,0,0,1-.36.678l-1.04,1.038a0.316,0.316,0,0,0-.07.138,0.373,0.373,0,0,0-.04.159,3.923,3.923,0,0,0,.39,1.017,8.636,8.636,0,0,0,.78,1.24,13.422,13.422,0,0,0,1.5,1.684,13.937,13.937,0,0,0,1.7,1.515,9.635,9.635,0,0,0,1.23.795,3.425,3.425,0,0,0,.77.307l0.26,0.053a0.552,0.552,0,0,0,.14-0.032,0.414,0.414,0,0,0,.14-0.074l1.2-1.229a1.307,1.307,0,0,1,.89-0.339,1.1,1.1,0,0,1,.57.127h0.02l4.09,2.415a1.068,1.068,0,0,1,.53.7h0Zm0,0" transform="translate(-1331 -34)"/>
</svg>
