<svg 
 xmlns="http://www.w3.org/2000/svg"
 xmlns:xlink="http://www.w3.org/1999/xlink"
 width="64px" height="57px">
<path fill-rule="evenodd"  fill="rgb(57, 223, 162)"
 d="M63.919,12.018 L63.175,16.799 L17.953,7.237 L18.698,2.457 C19.048,0.800 20.692,-0.270 22.350,0.082 L61.542,8.369 C63.200,8.719 64.270,10.362 63.919,12.018 ZM41.233,15.648 C42.881,15.192 44.603,16.165 45.061,17.812 L45.735,20.237 L61.474,23.564 L58.709,36.617 C58.359,38.273 56.715,39.342 55.057,38.991 L50.688,38.069 L51.853,42.266 C52.310,43.913 51.336,45.634 49.688,46.091 L10.727,56.894 C9.079,57.351 7.356,56.377 6.898,54.731 L0.106,30.276 C-0.351,28.629 0.623,26.909 2.271,26.451 L14.324,23.109 L16.253,14.003 L33.793,17.712 L41.233,15.648 ZM50.539,31.743 L55.093,32.705 C55.774,32.850 56.451,32.410 56.595,31.729 L57.559,27.179 C57.703,26.497 57.263,25.822 56.580,25.678 L52.027,24.714 C51.345,24.570 50.669,25.010 50.524,25.691 L49.560,30.241 C49.416,30.922 49.856,31.598 50.539,31.743 ZM9.342,54.053 C9.419,54.329 9.681,54.474 9.901,54.474 C9.950,54.474 10.000,54.466 10.049,54.453 L49.010,43.650 C49.196,43.599 49.299,43.474 49.353,43.378 C49.408,43.281 49.461,43.129 49.410,42.943 L47.891,37.477 L45.448,28.680 L5.380,39.789 L9.342,54.053 ZM13.731,25.904 L2.950,28.892 C2.649,28.975 2.466,29.300 2.549,29.599 L3.878,34.381 L43.945,23.272 L42.938,19.646 L42.617,18.490 C42.540,18.214 42.277,18.070 42.058,18.070 C42.009,18.070 41.959,18.076 41.909,18.090 L39.171,18.850 L13.731,25.904 ZM16.725,50.024 L12.175,51.285 C11.503,51.472 10.801,51.076 10.614,50.404 L9.351,45.858 C9.165,45.187 9.562,44.485 10.234,44.299 L14.784,43.036 C15.456,42.851 16.158,43.248 16.345,43.919 L17.608,48.464 C17.794,49.136 17.397,49.838 16.725,50.024 Z"/>
</svg>